PathFileType	4	(X/Y/Z)	C:/Users/beibeiliu/ov580/test_trc/User1\sequence.6_training_dense_right.trc
DataRate	CameraRate	NumFrames	NumMarkers	Units	OrigDataRate	OrigDataStartFrame	OrigNumFrames
120	120	18	19	mm	120	1	277
Frame#	Time	ThumbCMC			ThumbMCP			ThumbIP			ThumbTip			IndexMCP			IndexPIP			IndexTip			MiddleMCP			MiddlePIP			MiddleTip			RingMCP			RingPIP			RingTip			PinkyMCP			PinkyPIP			PinkyTip			BackHand1			BackHand2			BackHand3	
		X0	Y0	Z0	X1	Y1	Z1	X2	Y2	Z2	X3	Y3	Z3	X4	Y4	Z4	X5	Y5	Z5	X6	Y6	Z6	X7	Y7	Z7	X8	Y8	Z8	X9	Y9	Z9	X10	Y10	Z10	X11	Y11	Z11	X12	Y12	Z12	X13	Y13	Z13	X14	Y14	Z14	X15	Y15	Z15	X16	Y16	Z16	X17	Y17	Z17	X18	Y18	Z18	
0	0	132.536	84.3248	35.7309	104.253	66.5011	30.8167	84.5176	52.5931	17.3583	67.1615	42.2869	11.4056	142.831	69.063	-46.6754	140.247	64.1394	-74.181	138.024	64.4022	-94.3654	176.478	70.687	-54.2498	174.778	66.9113	-81.8203	182.001	62.4027	-111.046	198.17	62.8058	-46.5115	203.826	59.2791	-73.2346	211.983	54.5494	-97.5201	221.004	48.3969	-23.4284	234.343	40.7627	-36.1037	248.5	39.4417	-51.1678	194.725	83.1342	0.695993	196.915	101.647	30.8441	162.099	97.6868	14.9039	
1	0.00833333	129.02	82.6957	32.0801	108.171	65.6861	31.0695	85.1025	51.7592	16.1377	65.587	43.265	15.5713	142.33	68.8642	-46.3359	137.945	66.4414	-73.1965	141.595	65.3357	-97.8559	172.133	71.2338	-53.5045	173.956	67.1333	-85.707	181.193	63.8747	-112.703	195.602	63.4214	-49.1202	206.919	59.5619	-69.3262	209.837	55.648	-96.9646	219.52	49.2036	-23.0479	234.619	41.3073	-37.1198	246.503	38.8148	-56.6283	193.738	83.2801	1.24493	196.356	100.882	31.1696	160.616	97.9197	12.0362	
2	0.0166667	128.489	85.1973	37.136	107.299	64.5506	29.0576	83.9719	52.6965	17.5274	67.146	42.6747	12.6465	142.538	69.4606	-46.6391	137.321	66.8822	-69.4124	142.297	65.4376	-94.6917	172.373	71.4456	-58.4476	173.386	67.9246	-85.0952	181.525	64.2735	-113.886	197.97	63.9217	-47.179	202.534	60.2886	-69.8519	210.026	55.4168	-95.4758	220.22	50.5737	-24.6083	232.783	41.981	-34.8854	244.425	40.8049	-53.2492	194.235	83.7292	0.246834	198.841	101.081	28.3774	162.333	99.1127	13.3864	
3	0.025	126.775	84.0342	34.8306	105.734	66.2526	32.1281	83.9202	51.9795	16.078	64.6777	42.2032	13.3543	140.294	70.3211	-44.4334	137.209	66.9708	-73.5602	143.225	65.7584	-96.4763	175.85	71.6684	-55.7393	177.124	67.6544	-85.4156	183.327	63.556	-111.639	196.415	65.375	-48.9819	204.344	61.4026	-73.5233	208.608	55.8034	-96.4145	219.503	51.2718	-23.4866	230.583	43.1568	-33.9597	247.752	40.4043	-55.2707	191.238	85.8676	-0.265399	197.016	100.452	31.86	157.973	97.2539	10.7991	
4	0.0333333	125.498	84.1967	33.5486	106.635	65.4803	30.8699	84.2433	52.925	17.6152	65.0742	41.57	12.532	141.913	70.3199	-48.1226	137.319	67.9924	-70.2645	143.512	65.2234	-95.6315	170.985	72.7741	-52.6314	175.011	67.6723	-85.3367	180.026	64.8698	-110.134	195.198	65.0441	-43.8226	201.653	61.2958	-74.4021	209.124	57.1224	-97.6773	219.67	51.4714	-20.1935	233.432	42.5038	-37.4593	247.664	39.4231	-54.9635	191.971	86.0842	3.23204	199.857	102.122	31.1688	163.502	98.1142	14.3558	
5	0.0416667	125.765	83.3736	32.3291	107.935	64.4947	29.4874	87.664	52.8526	20.2997	67.6327	42.1199	14.4175	139.058	70.3905	-46.7419	141.433	67.3337	-73.2032	137.59	67.8277	-98.3597	173.718	72.9212	-52.7629	177.453	69.1954	-81.804	179.681	65.2496	-108.818	194.947	65.2821	-47.5656	204.536	62.185	-70.6997	206.772	56.2711	-94.1185	222.406	50.1525	-22.2665	230.281	43.6535	-35.1674	250.07	40.8545	-54.4891	196.048	84.1599	0.879661	196.782	100.389	28.9899	162.888	97.0182	10.468	
6	0.05	128.082	82.5842	32.9672	104.908	66.0526	31.5111	82.2747	52.9636	19.6729	64.8131	41.8527	16.9391	140.243	69.8984	-47.1391	135.944	67.8305	-73.2527	142.493	66.6852	-97.2601	171.025	73.1531	-54.4739	174.853	68.5371	-82.2308	180.357	64.7936	-110.721	199.108	65.6177	-46.8795	205.727	61.8466	-70.8077	210.455	56.5236	-93.5721	219.05	51.5559	-21.4607	234.938	41.8771	-34.6512	250.242	39.6809	-54.8819	192.521	86.6691	2.96517	194.326	101.251	31.1679	160.428	96.731	11.3266	
7	0.0583333	127.568	84.5445	36.8896	105.025	65.8041	30.9628	83.9969	52.6423	19.7644	64.3163	41.6624	14.6909	138.511	71.1483	-47.5954	139.258	67.0611	-75.2624	140.42	68.2671	-99.6346	173.411	72.2369	-56.0862	175.356	68.3285	-83.9327	183.828	65.0363	-114.602	199.965	64.5535	-47.4177	207.151	61.3332	-71.9682	207.867	56.9642	-94.1394	219.115	52.481	-20.4149	230.816	43.7321	-33.8652	249.327	41.7281	-52.5117	192.003	86.3722	-1.52042	195.285	102.683	32.5648	158.449	98.9113	13.8421	
8	0.0666667	129.543	82.1036	32.0722	105.422	65.4152	31.1989	87.0341	52.4513	19.841	66.4202	41.6121	15.9654	140.817	70.6455	-48.8642	138.462	69.0167	-73.4465	142.348	68.1141	-95.0331	174.244	73.3339	-54.749	176.77	68.5381	-86.0619	180.499	65.1783	-108.99	196.291	66.4445	-44.324	203.411	61.5931	-69.8842	210.197	56.7233	-96.8286	221.32	51.9897	-21.3936	231.464	42.4737	-36.6054	248.456	39.9819	-49.6464	196.602	86.6356	0.242499	198.648	100.747	30.097	162.325	98.0674	15.0709	
9	0.075	127.881	84.4408	36.5509	105.429	63.5826	30.5865	86.2875	52.1631	19.5627	65.7681	41.0158	13.1852	143.076	72.1611	-48.8666	137.15	69.6041	-69.9693	141.402	69.8031	-98.0997	171.339	75.0717	-57.7057	176.247	69.8616	-85.9074	179.591	67.0431	-110.021	197.441	66.7443	-44.5927	202.405	61.6501	-70.3457	208.204	55.7179	-95.5918	223.346	51.9511	-20.5647	232.461	43.2377	-35.7729	245.745	41.0323	-54.5415	191.489	85.893	3.69676	198.238	99.6038	29.9294	164.222	99.9854	15.5711	
10	0.0833333	129.794	82.8222	32.81	103.332	63.3017	27.9936	83.5814	50.4392	18.2476	66.5582	38.3346	10.4331	141.075	74.5986	-45.4798	137.147	72.2745	-74.5628	144.587	72.318	-96.1122	173.955	75.2553	-57.02	178.765	71.6682	-82.4276	182.418	66.6379	-110.898	199.564	66.1355	-48.7436	204.041	61.094	-71.7085	208.664	53.5781	-95.7766	223.537	51.4839	-20.8435	231.767	42.8762	-36.5475	247.642	38.2326	-57.484	191.873	87.7786	5.00519	196.919	102.899	33.4746	162.843	98.3984	16.7612	
11	0.0916667	128.914	82.9295	37.2788	109.473	61.86	26.954	84.6353	48.1219	12.7466	65.3963	37.1038	7.29274	139.396	76.7423	-48.149	139.861	75.5571	-74.5998	142.412	75.5998	-99.8776	171.031	77.4845	-54.7127	177.21	72.87	-85.073	179.107	67.5361	-112.64	198.647	67.1893	-49.1525	204.679	59.5132	-72.1795	207.162	49.6287	-98.3373	220.669	52.116	-27.2527	233.428	41.5835	-39.4942	246.486	35.2537	-56.4055	193.98	87.8897	0.0496076	195.971	101.852	32.8356	158.474	98.4033	13.3667	
12	0.1	126.299	82.6008	35.9037	108.843	60.9324	25.2403	89.2033	48.4929	13.9335	70.2571	37.5825	6.15159	138.852	81.2222	-50.9978	140.494	79.0817	-75.1543	139.851	78.8266	-96.5109	171.258	79.8374	-60.7347	178.928	71.8816	-88.3191	181.709	64.4641	-113.714	197.195	67.1573	-51.7725	205.484	56.4543	-76.215	204.048	45.9422	-98.6224	222.646	53.5799	-26.9172	229.945	42.1891	-40.9349	240.987	32.231	-60.1624	192.307	92.3628	0.841812	195.359	101.545	32.873	158.984	102.66	16.785	
13	0.108333	130.492	81.1006	31.9063	109.041	59.031	22.7816	92.0814	47.1748	7.78096	74.0191	35.539	2.56082	143.438	83.4806	-48.7221	142.579	83.7377	-75.4407	142.368	85.5205	-102.588	176.333	81.0154	-56.9939	178.394	71.8574	-85.801	182.136	57.5148	-116.334	199.967	65.9702	-53.0838	198.447	54.0444	-75.2467	203.229	38.2016	-93.3686	222.412	55.5452	-24.5173	229.653	38.7827	-42.0849	233.887	28.5755	-60.2887	192.571	93.818	4.29756	195.818	102.505	32.4703	158.668	103.972	17.4665	
14	0.116667	128.879	80.2232	31.2658	108.583	57.8628	22.687	94.1126	45.3747	4.33108	74.9436	32.1564	-8.07026	141.244	88.3734	-52.5967	143.226	87.3056	-78.4142	142.476	88.8878	-100.64	171.737	79.9587	-60.334	177.873	66.7412	-85.9476	178.029	43.9444	-111.989	199.177	65.4316	-52.1732	198.572	45.1255	-76.8102	195.342	21.3484	-90.0405	219.492	55.6	-26.6254	227.43	37.6411	-40.6042	223.96	15.7371	-61.2325	196.024	94.3578	2.85028	193.914	104.186	34.8528	159.486	102.549	14.4199	
15	0.125	127.707	81.1175	30.2871	112.937	56.6649	17.9654	97.096	44.4019	0.621305	83.3557	31.2464	-11.8403	141.338	91.5059	-51.6451	141.319	90.8189	-78.4417	142.981	92.7804	-101.115	172.43	77.4547	-62.4975	170.95	56.508	-87.5694	170.051	28.2236	-100.357	192.516	63.4051	-53.3393	196.821	39.0731	-69.4875	188.125	8.31941	-72.5847	217.846	54.3322	-28.1006	218.165	31.9271	-41.0013	203.308	8.25955	-52.2615	197.753	97.0417	3.82319	198.174	104.913	33.3058	160.443	104.745	18.485	
16	0.133333	132.221	80.347	30.4241	113.982	55.4344	13.6952	103.79	42.9979	-9.42757	89.7441	28.7875	-22.0779	142.065	94.2094	-52.863	140.862	94.0243	-77.1812	148.141	95.5733	-103.677	170.751	77.3562	-60.0288	168.354	49.5189	-80.8807	166.921	14.0744	-77.7845	190.884	62.9042	-48.7761	186.417	28.6888	-61.5384	175.02	1.72626	-49.5581	214.134	54.7389	-28.2343	202.163	26.6404	-38.2716	178.325	9.16483	-31.384	195.986	98.3737	4.198	198.209	105.367	37.3869	161.862	105.647	19.8773	
17	0.141667	129.428	80.6949	27.2885	119.009	54.3401	6.02758	106.399	41.5269	-11.9617	97.9384	28.1078	-28.4731	144.733	97.2211	-54.439	144.621	97.1006	-78.8394	148.183	97.0199	-102.725	171.04	72.2433	-61.9762	164.494	39.2768	-73.6676	153.857	10.5479	-56.1347	186.406	58.0644	-50.4216	180.441	22.1857	-50.1503	166.199	7.08679	-30.4027	206.632	49.8655	-31.7066	191.13	24.6489	-29.1648	168.758	16.3406	-11.1199	197.267	98.8939	2.59382	197.761	104.83	38.866	158.912	107.277	19.3626	
